STARTFONT 2.1
FONT jis.jis6e00.24
SIZE 24 72 72
FONTBOUNDINGBOX 24 24 0 -3
STARTPROPERTIES 4
FONT_DESCENT 3
FONT_ASCENT 21
DEFAULT_CHAR 5
COPYRIGHT "Copyright (c) 1992 AT&T - All rights reserved."
ENDPROPERTIES
CHARS 156
STARTCHAR ch-5
ENCODING 5
SWIDTH 1000 0
DWIDTH 24 0
BBX 24 24 0 -3
BITMAP
200380
180300
0c0304
0cfffe
000300
000308
807ffc
600300
320302
33ffff
040000
042018
0c3ffc
083018
183018
183ff8
303018
f03018
703ff8
303018
303018
303018
3830f8
183030
ENDCHAR
STARTCHAR ch-7
ENCODING 7
SWIDTH 1000 0
DWIDTH 24 0
BBX 24 24 0 -3
BITMAP
102018
0c3ffc
063018
063018
003ff8
003018
803018
603018
323ff8
320c00
040c00
041806
0c1fff
083006
187986
18b3c6
333606
f03846
703066
303fe6
301fcc
30000c
3800fc
180038
ENDCHAR
STARTCHAR ch-8
ENCODING 8
SWIDTH 1000 0
DWIDTH 24 0
BBX 24 24 0 -3
BITMAP
200380
180300
0c0306
0dffff
001060
001060
8008c0
600d80
320700
320de0
04307f
05c00e
0c3030
083030
183ff0
183030
303030
f03030
703ff0
303030
306030
306030
38c030
1b0030
ENDCHAR
STARTCHAR ch-9
ENCODING 9
SWIDTH 1000 0
DWIDTH 24 0
BBX 24 24 0 -3
BITMAP
100380
0c0300
060300
06730c
0063fe
006300
806300
606300
326306
33ffff
040300
044310
0c730c
086306
18c323
18833b
311f70
f20660
7000c0
300180
300300
300c00
383000
19c000
ENDCHAR
STARTCHAR ch-10
ENCODING 10
SWIDTH 1000 0
DWIDTH 24 0
BBX 24 24 0 -3
BITMAP
20e007
18c386
0cc306
0cc306
00d326
00db36
80cb26
60cb46
32c306
32c326
04dff6
04c306
0cc706
08c786
18c746
18cf66
30cb26
f0cb36
70db36
309336
30a306
318306
390006
1a0006
ENDCHAR
STARTCHAR ch-11
ENCODING 11
SWIDTH 1000 0
DWIDTH 24 0
BBX 24 24 0 -3
BITMAP
1001c0
0c0180
060180
063980
003198
0031fc
803180
603180
323180
323186
07ffff
040000
0c400c
08301e
181830
181840
300000
f00000
700440
300830
30301c
31e00e
38c006
188006
ENDCHAR
STARTCHAR ch-19
ENCODING 19
SWIDTH 1000 0
DWIDTH 24 0
BBX 24 24 0 -3
BITMAP
100038
0c01fc
067f80
060008
00080e
00860c
806318
603310
323020
320000
040300
040318
0c7ffc
080300
180300
180306
31ffff
f00300
700680
300640
300c70
30183f
38301e
19c006
ENDCHAR
STARTCHAR ch-21
ENCODING 21
SWIDTH 1000 0
DWIDTH 24 0
BBX 24 24 0 -3
BITMAP
200407
190706
0c8666
0cc466
00cc66
000866
81ff66
403066
643066
643066
043266
0dff66
083066
083066
183066
183066
306866
f06406
704606
30c306
308306
310306
3a003e
18000c
ENDCHAR
STARTCHAR ch-25
ENCODING 25
SWIDTH 1000 0
DWIDTH 24 0
BBX 24 24 0 -3
BITMAP
100800
0c0c60
061ff0
061860
003040
00608c
80fffe
60648c
32648c
32648c
04648c
046cfc
0c687c
08700c
18638c
18630c
30630c
f1ffff
700680
300c40
301870
30303f
38601e
198006
ENDCHAR
STARTCHAR ch-26
ENCODING 26
SWIDTH 1000 0
DWIDTH 24 0
BBX 24 24 0 -3
BITMAP
100700
0c0608
06060e
0606cc
007ff8
000618
800630
620660
3206c6
33ffff
040300
040600
0c0c18
081ffc
183818
18d818
331818
f01ff8
701818
301818
301818
301ff8
381818
181818
ENDCHAR
STARTCHAR ch-27
ENCODING 27
SWIDTH 1000 0
DWIDTH 24 0
BBX 24 24 0 -3
BITMAP
2001d8
18018c
0c018c
0c0180
010186
01ffff
818180
618180
318180
35bd88
05818e
05818c
09bd8c
09a58c
19a4d8
11a4d8
31a4d0
f13c72
730062
3200f2
3201ba
34031e
380c0f
183003
ENDCHAR
STARTCHAR ch-29
ENCODING 29
SWIDTH 1000 0
DWIDTH 24 0
BBX 24 24 0 -3
BITMAP
100300
0c0300
060680
060640
000c60
001838
80301f
606fee
318006
300000
04840e
04fecc
0884cc
0884cc
18fccc
1084cc
3084cc
f084cc
70fccc
30840c
30840c
30840c
389c7c
188c18
ENDCHAR
STARTCHAR ch-31
ENCODING 31
SWIDTH 1000 0
DWIDTH 24 0
BBX 24 24 0 -3
BITMAP
100380
0c0300
06030c
06fffe
000000
002030
803ff8
603030
323030
323ff0
040000
048006
0cffff
098006
198004
183ff0
300300
f00300
700300
300300
300300
300300
381f00
180600
ENDCHAR
STARTCHAR ch-32
ENCODING 32
SWIDTH 1000 0
DWIDTH 24 0
BBX 24 24 0 -3
BITMAP
204006
187fff
0c6000
8c6000
417ff8
626018
646018
0c6018
187ff8
f06000
706000
306006
307fff
386000
181c00
001806
ffffff
007a00
00f980
01d8e0
07187f
1c181e
e01806
001800
ENDCHAR
STARTCHAR ch-33
ENCODING 33
SWIDTH 1000 0
DWIDTH 24 0
BBX 24 24 0 -3
BITMAP
200380
180300
0c8306
0cffff
00c000
00c420
80c424
60fffe
32c420
32c420
04c420
04c7e0
0cc000
08c018
18fffc
18c818
30c430
f0c660
7083c0
308180
3183e0
31067f
3a181e
18e006
ENDCHAR
STARTCHAR ch-35
ENCODING 35
SWIDTH 1000 0
DWIDTH 24 0
BBX 24 24 0 -3
BITMAP
100380
0c0300
060300
060306
01ffff
000f40
800b40
601b20
321330
323318
04231c
04430f
0d8006
083ff0
183030
183030
303ff0
f03030
703030
303ff0
303030
303036
39ffff
180000
ENDCHAR
STARTCHAR ch-36
ENCODING 36
SWIDTH 1000 0
DWIDTH 24 0
BBX 24 24 0 -3
BITMAP
203870
183060
0c3260
0dff60
003060
013060
813366
43ffff
630366
630266
080c66
09fe66
080c66
180866
183066
103066
303e66
f3f8c6
71f0c6
31308e
30318c
30310c
39f27c
186418
ENDCHAR
STARTCHAR ch-37
ENCODING 37
SWIDTH 1000 0
DWIDTH 24 0
BBX 24 24 0 -3
BITMAP
208006
18ffff
0cc006
0cc006
00c006
00fffe
80c000
44c00c
64dffe
64c300
04c320
08c218
08c40c
08dff6
18cf06
1989c0
318180
f1818c
711ffe
330180
320180
340186
387fff
180000
ENDCHAR
STARTCHAR ch-38
ENCODING 38
SWIDTH 1000 0
DWIDTH 24 0
BBX 24 24 0 -3
BITMAP
101030
0c1ff8
061830
061830
001930
0019f0
801930
601930
321930
329936
04ffff
04c006
0cc866
08cff6
18cc66
18cc66
30cc66
f0cc66
70cfe6
30cc66
30cc06
30c006
38c03e
18c00c
ENDCHAR
STARTCHAR ch-41
ENCODING 41
SWIDTH 1000 0
DWIDTH 24 0
BBX 24 24 0 -3
BITMAP
100000
0c2030
063ff8
063030
003030
003030
803ff0
603030
323030
323030
043ff0
043030
0c0000
08800c
18fffe
18cccc
30cccc
f0cccc
70cccc
30cccc
30cccc
30cccc
3bffff
180000
ENDCHAR
STARTCHAR ch-43
ENCODING 43
SWIDTH 1000 0
DWIDTH 24 0
BBX 24 24 0 -3
BITMAP
103998
0c3110
063110
063112
01ffff
003110
803110
603110
3231f0
323000
04300c
043ffe
0c3300
080300
180306
19ffff
300f40
f01b20
701b30
303318
30631f
30c30e
3b0306
180300
ENDCHAR
STARTCHAR ch-44
ENCODING 44
SWIDTH 1000 0
DWIDTH 24 0
BBX 24 24 0 -3
BITMAP
200007
190606
0dff66
0d8666
018666
018666
818666
61fe66
318666
318666
058666
058666
09fe66
098666
198666
198666
318666
f1fe66
700006
308806
30e606
30c306
3981be
1a018c
ENDCHAR
STARTCHAR ch-45
ENCODING 45
SWIDTH 1000 0
DWIDTH 24 0
BBX 24 24 0 -3
BITMAP
104006
0c7fff
066186
066186
007ffe
006186
806186
606186
327ffe
320000
040000
043ffc
0c300c
08300c
183ffc
18300c
30300c
f0300c
703ffc
30300c
30300c
30300c
38307c
183018
ENDCHAR
STARTCHAR ch-46
ENCODING 46
SWIDTH 1000 0
DWIDTH 24 0
BBX 24 24 0 -3
BITMAP
101c70
0c1860
061866
06ffff
001860
001860
800000
600006
32ffff
320018
040018
044318
0c7f98
086318
186318
186318
306318
f07f18
706318
306018
300018
300018
3800f8
180030
ENDCHAR
STARTCHAR ch-47
ENCODING 47
SWIDTH 1000 0
DWIDTH 24 0
BBX 24 24 0 -3
BITMAP
101ce0
0c18c0
0618c0
0618cc
00fffe
0018c0
8018c0
6018c0
3218c6
33ffff
021840
041820
043030
0c3fd8
0860dc
18c0cf
31a0c6
f63fc0
7030c0
303008
303008
30300c
383ffc
181ff8
ENDCHAR
STARTCHAR ch-56
ENCODING 56
SWIDTH 1000 0
DWIDTH 24 0
BBX 24 24 0 -3
BITMAP
207080
1860e0
0c60c0
0c60c6
0066ff
07ff80
80c100
60c20c
30c0fe
30cc0c
04fe08
04cc28
08cc30
08cc30
18cdff
10cc30
30cc30
f0cc30
618c30
618c30
611c30
631830
7279f0
343060
ENDCHAR
STARTCHAR ch-58
ENCODING 58
SWIDTH 1000 0
DWIDTH 24 0
BBX 24 24 0 -3
BITMAP
200070
180060
0df060
0d1060
011268
011364
811366
41f362
651263
651263
051660
0d1464
09f467
091866
191066
1911ec
3110cc
f11018
71f018
300030
300060
3000c0
380380
180c00
ENDCHAR
STARTCHAR ch-62
ENCODING 62
SWIDTH 1000 0
DWIDTH 24 0
BBX 24 24 0 -3
BITMAP
101000
0c1006
063fff
066006
0061c4
000180
807ffe
600180
32218c
323ffe
04318c
04318c
0c3ffc
08318c
18318c
183ffc
30318c
f00180
700186
30ffff
300180
300180
380180
180180
ENDCHAR
STARTCHAR ch-67
ENCODING 67
SWIDTH 1000 0
DWIDTH 24 0
BBX 24 24 0 -3
BITMAP
200c00
181e02
0c39ff
0c7030
00f030
033030
803034
4031fe
643030
65fe30
043030
0c3034
0831fe
083030
1bfe30
19f030
313032
f033ff
706030
306030
304030
30c030
388030
190030
ENDCHAR
STARTCHAR ch-74
ENCODING 74
SWIDTH 1000 0
DWIDTH 24 0
BBX 24 24 0 -3
BITMAP
200700
180600
0c0604
0dfffe
000400
000c08
80fffc
620880
321882
33ffff
042040
046020
0c4030
08bfdc
19060f
1a0606
35fff8
f00600
700d80
300c60
301830
303018
38601c
19800c
ENDCHAR
STARTCHAR ch-77
ENCODING 77
SWIDTH 1000 0
DWIDTH 24 0
BBX 24 24 0 -3
BITMAP
1001c0
0c7187
066186
066186
006186
006186
807ffe
606006
320000
320006
04ffff
040300
0c0200
084406
187fff
186446
306446
f06446
706446
306446
306446
306446
38645e
18600c
ENDCHAR
STARTCHAR ch-78
ENCODING 78
SWIDTH 1000 0
DWIDTH 24 0
BBX 24 24 0 -3
BITMAP
100000
0c0006
06ffff
060180
000100
000100
804206
607fff
326426
326426
046426
0467e6
0c6426
086426
186426
186426
3067e6
f06426
706426
306426
306426
307ffe
386006
186006
ENDCHAR
STARTCHAR ch-86
ENCODING 86
SWIDTH 1000 0
DWIDTH 24 0
BBX 24 24 0 -3
BITMAP
103886
0c30ff
0630c6
0630c6
0036c6
03ffc6
8030c6
6030fe
3230c6
3230c6
0430c6
0430c6
0dfcc6
098cfe
198cc6
198cc6
318cc6
f18cc6
718cc6
31fd86
318d86
318106
38023e
18040c
ENDCHAR
STARTCHAR ch-88
ENCODING 88
SWIDTH 1000 0
DWIDTH 24 0
BBX 24 24 0 -3
BITMAP
103886
0c30ff
0630c6
0630c6
0032c6
03ffc6
8030c6
6030fe
3030c6
3478c6
0474c6
0476c6
08f6c6
08b0c6
19b0fe
1130c6
3230c6
f430c6
7030c6
3030c6
3030c6
3030fe
3830c6
1830c6
ENDCHAR
STARTCHAR ch-91
ENCODING 91
SWIDTH 1000 0
DWIDTH 24 0
BBX 24 24 0 -3
BITMAP
203870
183060
0c3064
0dfffe
003060
003060
803fe0
603060
323060
323060
043fe0
043060
0c3060
083066
1fffff
18ccc0
30ccc0
f0c8fe
70d07e
30e000
30c000
30c00c
38fffe
18c000
ENDCHAR
STARTCHAR ch-95
ENCODING 95
SWIDTH 1000 0
DWIDTH 24 0
BBX 24 24 0 -3
BITMAP
100400
0c0700
064618
067ffc
006018
006018
807ff8
606018
326018
326018
047ff8
046018
0c0000
080000
18fffc
180300
300300
f00318
70fffc
300300
300300
300306
3bffff
180000
ENDCHAR
STARTCHAR ch-103
ENCODING 103
SWIDTH 1000 0
DWIDTH 24 0
BBX 24 24 0 -3
BITMAP
200030
18fff8
0c0060
0c0980
000600
008306
80ffff
60c306
32c306
32fffe
04c306
04c306
0cfffe
08c006
180600
18060c
31fffe
f0060c
700c0c
300c0c
30181c
303018
38c0f8
1b0030
ENDCHAR
STARTCHAR ch-107
ENCODING 107
SWIDTH 1000 0
DWIDTH 24 0
BBX 24 24 0 -3
BITMAP
200c70
187e60
0fe060
0c6060
006064
006167
806966
43fd66
60636c
646368
046360
0cf060
08ec60
08e660
19e670
196050
3360d0
f260d0
746098
306088
30618c
30610f
386206
186406
ENDCHAR
STARTCHAR ch-110
ENCODING 110
SWIDTH 1000 0
DWIDTH 24 0
BBX 24 24 0 -3
BITMAP
20000c
18fffe
0c0440
0c0440
00444c
007ffe
80644c
60644c
32644c
32644c
04644c
047ffc
0c600c
080000
180380
180300
300318
f07ffc
700300
300300
300300
300306
39ffff
180000
ENDCHAR
STARTCHAR ch-111
ENCODING 111
SWIDTH 1000 0
DWIDTH 24 0
BBX 24 24 0 -3
BITMAP
202030
183ff8
0c3030
0c3030
003ff0
003030
803030
603030
323ff0
320000
040006
07ffff
0c3000
08200c
187ffe
18cccc
31888c
f6118c
70210c
30421c
318418
300838
3831f0
180060
ENDCHAR
STARTCHAR ch-114
ENCODING 114
SWIDTH 1000 0
DWIDTH 24 0
BBX 24 24 0 -3
BITMAP
10001c
0c01fe
067f88
06020e
00210c
001988
800890
607ffe
320600
320600
040606
04ffff
0c0c00
080c00
180818
181ffc
301218
f03230
702160
3041c0
308370
30063f
38181e
18e006
ENDCHAR
STARTCHAR ch-118
ENCODING 118
SWIDTH 1000 0
DWIDTH 24 0
BBX 24 24 0 -3
BITMAP
100200
0c0380
064318
067ffc
006018
006018
807ff8
606018
326018
326018
047ff8
040300
0c0308
08330e
19fb8c
183398
303350
f06360
706330
30c31c
30830f
310306
3a1f00
180600
ENDCHAR
STARTCHAR ch-126
ENCODING 126
SWIDTH 1000 0
DWIDTH 24 0
BBX 24 24 0 -3
BITMAP
200380
180300
0c0306
0dffff
004cc0
006cd0
80cccc
6088c6
3110c6
3020c0
040000
04fff8
0c0018
080018
187ff8
186000
30600c
f0fffe
70c00c
30001c
300018
300038
3801f0
180060
ENDCHAR
STARTCHAR ch-127
ENCODING 127
SWIDTH 1000 0
DWIDTH 24 0
BBX 24 24 0 -3
BITMAP
10400c
0c7ffe
06600c
06600c
00600c
007ffc
80600c
60600c
32600c
327ffc
04600c
040000
0c0ee0
090cc4
188cc7
188cc6
30ccc6
f0cccc
70ccc8
30ccd0
300cc0
300cc6
3bffff
180000
ENDCHAR
STARTCHAR ch-128
ENCODING 128
SWIDTH 1000 0
DWIDTH 24 0
BBX 24 24 0 -3
BITMAP
201c70
181860
0c1864
0dfffe
001860
001860
801862
63ffff
300300
300300
04830c
04fffe
0cc30c
08c30c
18d32c
18d32c
30d32c
f0d32c
70dfec
30d02c
30c00c
30c00c
38c07c
18c018
ENDCHAR
STARTCHAR ch-130
ENCODING 130
SWIDTH 1000 0
DWIDTH 24 0
BBX 24 24 0 -3
BITMAP
203807
183006
0c3066
0c3366
03ffe6
003066
803066
41fe66
613266
693266
093266
093266
093266
11fe66
107066
107066
30f866
f0b466
71b606
313306
323306
343006
38303e
18300c
ENDCHAR
STARTCHAR ch-140
ENCODING 140
SWIDTH 1000 0
DWIDTH 24 0
BBX 24 24 0 -3
BITMAP
200300
18ff08
0c069c
0c86b0
006c42
002c47
80182c
601030
32201c
327fff
0498c6
0518c0
0c18c0
0818cc
19fffe
1818c0
3018c0
f018c0
7018c2
3030c2
3030c2
3020c3
3840ff
19807e
ENDCHAR
STARTCHAR ch-143
ENCODING 143
SWIDTH 1000 0
DWIDTH 24 0
BBX 24 24 0 -3
BITMAP
1001c0
0c0180
068186
06ffff
00c180
00c180
80dffc
60c18c
32c18c
32ffff
04c18c
04c18c
0cc18c
08dffc
18c000
18c000
30900c
f09ffe
71980c
31180c
31180c
32180c
381ffc
18180c
ENDCHAR
STARTCHAR ch-144
ENCODING 144
SWIDTH 1000 0
DWIDTH 24 0
BBX 24 24 0 -3
BITMAP
200000
188006
0cffff
0cc0c0
00c080
00c90c
80cffe
60cc0c
30cc0c
34cc0c
04cffc
04cc0c
08cc0c
08cc0c
18cffc
18cccc
3180c0
f190d0
711ccc
3318c6
3230c3
3460c3
3887c0
180180
ENDCHAR
STARTCHAR ch-150
ENCODING 150
SWIDTH 1000 0
DWIDTH 24 0
BBX 24 24 0 -3
BITMAP
102080
0c38e0
0630c0
86310c
607ffe
326180
326188
04fffc
04e180
096188
1a7ffc
f06180
706180
306186
307fff
386000
181c00
001806
ffffff
001800
001800
001800
001800
001800
ENDCHAR
STARTCHAR ch-152
ENCODING 152
SWIDTH 1000 0
DWIDTH 24 0
BBX 24 24 0 -3
BITMAP
100380
0c0300
060318
067ffc
000300
000300
800306
61ffff
300c00
300820
041810
041018
0cfffc
087c0c
18400c
180000
307ff8
f06498
706498
306498
306498
30649a
3bffff
180000
ENDCHAR
STARTCHAR ch-156
ENCODING 156
SWIDTH 1000 0
DWIDTH 24 0
BBX 24 24 0 -3
BITMAP
200c00
189e06
0cf1ff
0cc066
00c066
00c866
80c466
44c646
64fec6
67e69e
05810c
0d0200
080000
084018
187ffc
186318
306318
f06318
707ff8
306318
306318
306318
387ff8
186018
ENDCHAR
STARTCHAR ch-157
ENCODING 157
SWIDTH 1000 0
DWIDTH 24 0
BBX 24 24 0 -3
BITMAP
100e70
0c0c60
060c60
06fffe
000c60
000c60
807ffc
600c60
320c60
32fffe
040100
042118
0c3ffc
083118
183118
183ff8
303118
f03118
71ffff
303018
303018
303018
3830f8
183030
ENDCHAR
STARTCHAR ch-159
ENCODING 159
SWIDTH 1000 0
DWIDTH 24 0
BBX 24 24 0 -3
BITMAP
204000
184006
0cffff
0d8006
018004
002030
803ff8
603030
323030
323ff0
043030
043030
0c3ff0
083030
180300
180306
31ffff
f00000
701040
301c30
303818
30300c
38600e
198006
ENDCHAR
STARTCHAR ch-162
ENCODING 162
SWIDTH 1000 0
DWIDTH 24 0
BBX 24 24 0 -3
BITMAP
102010
0c101c
061838
060c30
000c60
000040
80008c
62fffe
321020
321c20
041810
043818
0c300c
08600f
18c006
1b7ff8
306498
f06498
706498
306498
306498
30649a
3bffff
180000
ENDCHAR
STARTCHAR ch-165
ENCODING 165
SWIDTH 1000 0
DWIDTH 24 0
BBX 24 24 0 -3
BITMAP
2003a0
180330
0c0316
0dffff
000300
004318
807ffc
606318
326318
327ff8
046318
046318
0c7ff8
086018
180000
180066
31ffff
f00060
702060
301860
300c60
300c60
3801e0
1800c0
ENDCHAR
STARTCHAR ch-170
ENCODING 170
SWIDTH 1000 0
DWIDTH 24 0
BBX 24 24 0 -3
BITMAP
100038
0c03fc
067f80
060408
00830e
00618c
803188
603210
320300
320640
042470
0418e0
0c0988
080204
18fffe
187e06
300300
f00300
71ffff
300680
300c60
301838
38601f
198006
ENDCHAR
STARTCHAR ch-175
ENCODING 175
SWIDTH 1000 0
DWIDTH 24 0
BBX 24 24 0 -3
BITMAP
200400
190746
0c867f
0cc446
00cc46
000846
83ff46
603046
30307e
353246
053246
053246
0d3246
093246
19327e
19fe46
313246
f13246
7030c6
302086
306086
304186
38813e
19020c
ENDCHAR
STARTCHAR ch-178
ENCODING 178
SWIDTH 1000 0
DWIDTH 24 0
BBX 24 24 0 -3
BITMAP
100380
0c0300
064318
067ffc
006318
006318
806318
607ff8
326318
326318
046318
047ff8
0c0300
080318
18fffc
182018
301030
f00c60
7006c0
300380
3006c0
300c78
38301f
19c006
ENDCHAR
STARTCHAR ch-182
ENCODING 182
SWIDTH 1000 0
DWIDTH 24 0
BBX 24 24 0 -3
BITMAP
200380
184300
0c4306
0cffff
00c006
019008
819c40
601830
323318
32230c
04468c
048640
0c0c60
081830
18301c
18600f
30bff6
f33030
703030
303030
303030
303030
383ff0
183030
ENDCHAR
STARTCHAR ch-183
ENCODING 183
SWIDTH 1000 0
DWIDTH 24 0
BBX 24 24 0 -3
BITMAP
210006
19ffff
0d8006
0d8006
018066
01bff6
818206
618606
318426
318a36
05b326
058546
0d8586
098946
19b366
198536
318936
f1b106
718706
318306
318006
318006
39fffe
198006
ENDCHAR
STARTCHAR ch-186
ENCODING 186
SWIDTH 1000 0
DWIDTH 24 0
BBX 24 24 0 -3
BITMAP
200c06
11feff
180c06
180c06
180c06
010c86
81fcfe
4180c0
6580c0
658cc6
65feff
080c06
090c86
08cc66
184c26
101c0e
306c36
f3cde6
718cc6
310c86
301c0e
30180c
38f87c
183018
ENDCHAR
STARTCHAR ch-189
ENCODING 189
SWIDTH 1000 0
DWIDTH 24 0
BBX 24 24 0 -3
BITMAP
20800c
18fffe
0cc000
0cc000
00cff8
00c000
80c006
60ffff
30cc84
34cc46
04cc6c
048c30
098d9c
093e0f
1a1876
181060
300060
f3ffff
702060
301060
301860
301860
3803e0
1800c0
ENDCHAR
STARTCHAR ch-194
ENCODING 194
SWIDTH 1000 0
DWIDTH 24 0
BBX 24 24 0 -3
BITMAP
100380
0c0300
060306
06ffff
001020
000830
804c20
604446
327fff
32c004
04c388
040300
0c0306
08ffff
180c00
180c18
300ffc
f00c18
700c18
301818
301838
303030
3861f0
198060
ENDCHAR
STARTCHAR ch-196
ENCODING 196
SWIDTH 1000 0
DWIDTH 24 0
BBX 24 24 0 -3
BITMAP
100300
0c0300
060680
060640
000c60
000830
801fdc
60300f
326006
32bff8
043018
043018
0c3ff8
083018
183018
183ff8
302000
f0600c
707ffe
30580c
30d80c
30980c
391ffc
18180c
ENDCHAR
STARTCHAR ch-197
ENCODING 197
SWIDTH 1000 0
DWIDTH 24 0
BBX 24 24 0 -3
BITMAP
2001d0
18018c
0c0184
0c0180
020186
03ffff
830180
430180
637d88
6b018e
0b008c
0b188c
1312c8
1352d8
125450
32d070
329020
e23022
662c72
642652
64469a
68810e
710207
300c03
ENDCHAR
STARTCHAR ch-201
ENCODING 201
SWIDTH 1000 0
DWIDTH 24 0
BBX 24 24 0 -3
BITMAP
102018
0c3ffc
063018
063018
003ff8
003018
803018
603018
323ff8
320310
04431c
042318
0c3310
083326
19ffff
180cc0
300cc0
f00cc0
7018c0
3018c2
3030c2
3020c3
3840ff
19807e
ENDCHAR
STARTCHAR ch-203
ENCODING 203
SWIDTH 1000 0
DWIDTH 24 0
BBX 24 24 0 -3
BITMAP
102020
0c1838
060c30
060c20
000046
01ffff
800000
602020
323838
323030
042020
042828
0d4d4e
088c8c
18cccc
18d8d8
301818
f01010
702020
302824
304c46
33f7fb
39c6e3
190683
ENDCHAR
STARTCHAR ch-204
ENCODING 204
SWIDTH 1000 0
DWIDTH 24 0
BBX 24 24 0 -3
BITMAP
204200
187380
0c6306
0c63ff
004618
00d518
80d8b0
409070
6990e0
6991b8
0b931f
0d9c06
1990e0
1190c0
1190c6
319fff
3191d0
f193d0
7192d8
3186cc
3184cf
3188c6
3990c6
1980c0
ENDCHAR
STARTCHAR ch-209
ENCODING 209
SWIDTH 1000 0
DWIDTH 24 0
BBX 24 24 0 -3
BITMAP
102030
0c3ff8
063030
063030
0033f0
003330
80b330
60b336
30ffff
348006
058008
09bff0
083030
083030
183ff0
103030
303030
f03030
703ff0
303030
303030
303030
3831f0
183060
ENDCHAR
STARTCHAR ch-211
ENCODING 211
SWIDTH 1000 0
DWIDTH 24 0
BBX 24 24 0 -3
BITMAP
200380
184300
0c4306
0cffff
00c006
018384
818308
607ffc
321020
320830
040c60
040c40
0c0086
09ffff
180300
180300
30030c
f0fffe
700300
300300
300300
300300
380300
180300
ENDCHAR
STARTCHAR ch-212
ENCODING 212
SWIDTH 1000 0
DWIDTH 24 0
BBX 24 24 0 -3
BITMAP
10001c
0c01fe
063fc0
060404
008307
006186
803186
60318c
323008
320010
040600
044f06
0c787f
086006
186006
186006
306406
f07e7e
706006
306006
306006
306006
387ffe
186006
ENDCHAR
STARTCHAR ch-213
ENCODING 213
SWIDTH 1000 0
DWIDTH 24 0
BBX 24 24 0 -3
BITMAP
000380
232310
3f931c
331b18
331b10
330320
337ffe
330680
3f0680
330c46
33ffff
330820
331830
333198
3f610f
339126
330d30
330540
230100
230560
63791c
43310e
4f2706
860300
ENDCHAR
STARTCHAR ch-221
ENCODING 221
SWIDTH 1000 0
DWIDTH 24 0
BBX 24 24 0 -3
BITMAP
100380
0c0300
06030c
06fffe
001040
000870
800c60
620c86
33ffff
320000
044018
047ffc
0c6318
086318
187ff8
186318
306318
f06318
707ff8
306302
300302
300303
3803ff
1801fe
ENDCHAR
STARTCHAR ch-222
ENCODING 222
SWIDTH 1000 0
DWIDTH 24 0
BBX 24 24 0 -3
BITMAP
20739c
186318
0c6318
0dffff
006318
006318
806318
407ff8
648000
648006
05ffff
098306
0b0304
0b4318
187ffc
186318
306318
f06318
706318
306318
306378
306330
380300
180300
ENDCHAR
STARTCHAR ch-236
ENCODING 236
SWIDTH 1000 0
DWIDTH 24 0
BBX 24 24 0 -3
BITMAP
200006
19ffff
0c0000
0c0000
00fffc
00c00c
80c00c
60fffc
32c000
32cff0
04c810
04cff0
0cc000
08dffc
18d88c
18d88c
30988c
f09ffc
719800
311802
311802
321803
381fff
180ffe
ENDCHAR
STARTCHAR ch-239
ENCODING 239
SWIDTH 1000 0
DWIDTH 24 0
BBX 24 24 0 -3
BITMAP
206498
186498
0c6498
0dffff
006498
004498
80c49f
40878f
650000
648006
04ffff
088306
098304
098300
187ffc
18630c
30630c
f0630c
70630c
30630c
30637c
306318
380300
180300
ENDCHAR
STARTCHAR ch-242
ENCODING 242
SWIDTH 1000 0
DWIDTH 24 0
BBX 24 24 0 -3
BITMAP
100800
0c0e00
060c20
060810
001018
00fffc
807c0c
604700
320606
33ffff
040c40
041820
0c3218
08670f
198e46
1818e0
3061c8
f0031c
700c38
307070
3000e0
300380
380e00
187000
ENDCHAR
STARTCHAR ch-244
ENCODING 244
SWIDTH 1000 0
DWIDTH 24 0
BBX 24 24 0 -3
BITMAP
200380
180300
0c0306
0dffff
001040
000870
800c60
600c40
328086
32ffff
04c006
04c306
0cc326
08dff6
18c306
18c306
30cfe6
f0c826
70c826
30c826
30cfe6
30c006
38c01e
18c00c
ENDCHAR
STARTCHAR ch-247
ENCODING 247
SWIDTH 1000 0
DWIDTH 24 0
BBX 24 24 0 -3
BITMAP
100380
0c0300
060306
0603ff
000300
000300
808306
60ffff
32c406
32c246
04c266
04c846
0cc4c6
08e2a6
18d916
18c996
30c2c6
f0c466
70c866
30d206
30c106
30c106
38fffe
18c006
ENDCHAR
STARTCHAR ch-248
ENCODING 248
SWIDTH 1000 0
DWIDTH 24 0
BBX 24 24 0 -3
BITMAP
201880
11fce0
1800c0
1800c0
000c86
03ffff
800130
400230
641830
65fc30
040030
080036
0819ff
09fc30
180030
100030
310c30
f1fe30
718c30
318c30
318c30
318c30
39fc30
198c30
ENDCHAR
STARTCHAR ch-254
ENCODING 254
SWIDTH 1000 0
DWIDTH 24 0
BBX 24 24 0 -3
BITMAP
100380
0c0300
060306
06ffff
000800
001c38
80300e
60c006
323ff8
323018
043018
043018
0c3018
083ff8
180684
180c87
30184e
f03858
70d860
331830
301838
30ff9f
38780e
184006
ENDCHAR
STARTCHAR ch-255
ENCODING 255
SWIDTH 1000 0
DWIDTH 24 0
BBX 24 24 0 -3
BITMAP
203838
183030
0c3036
0fffff
003030
003030
803ff0
600300
310306
31ffff
058306
058306
0db366
099326
199326
199326
31bb76
f1af5e
71cb96
318306
318306
318306
39833e
19800c
ENDCHAR
STARTCHAR ch-257
ENCODING 257
SWIDTH 1000 0
DWIDTH 24 0
BBX 24 24 0 -3
BITMAP
101000
0c1c00
061860
061ff0
0030c0
003080
806100
62c20c
33fffe
32630c
04630c
04630c
0c7ffc
08630c
18630c
18630c
307ffc
f0600c
700000
305110
30488c
308cc6
3b8cc7
1b0cc3
ENDCHAR
STARTCHAR ch-258
ENCODING 258
SWIDTH 1000 0
DWIDTH 24 0
BBX 24 24 0 -3
BITMAP
20000c
19fffe
0c0480
0c0480
004498
007ffc
806498
606498
326498
326498
047ff8
046018
0c0000
087ff8
180000
180006
33ffff
f00300
704320
307318
30630c
30c306
3b1f06
180600
ENDCHAR
STARTCHAR ch-262
ENCODING 262
SWIDTH 1000 0
DWIDTH 24 0
BBX 24 24 0 -3
BITMAP
200380
180300
0c0306
0dffff
000700
000fc0
821b30
62331c
32630e
358706
040e80
041860
0c3038
08c39f
1b0306
184310
303338
f033c0
700300
301bc0
33e33c
31c30e
391f06
180600
ENDCHAR
STARTCHAR ch-265
ENCODING 265
SWIDTH 1000 0
DWIDTH 24 0
BBX 24 24 0 -3
BITMAP
200380
180300
0d0306
0dffff
018000
018880
81888c
61fffe
35888c
35888c
05888c
09fffc
098000
099ce0
1998c8
1198ce
311ecc
f118d8
7318e0
3218c2
321ec2
35f8c3
38e0ff
18807e
ENDCHAR
STARTCHAR ch-271
ENCODING 271
SWIDTH 1000 0
DWIDTH 24 0
BBX 24 24 0 -3
BITMAP
20800c
18fffe
0cc00c
0cc00c
00c00c
00fffc
80c000
62c006
32ffff
34c180
04c180
04c186
08ffff
08e186
19edb6
116596
316186
f16186
736db6
326596
326186
346186
38619e
18618c
ENDCHAR
STARTCHAR ch-273
ENCODING 273
SWIDTH 1000 0
DWIDTH 24 0
BBX 24 24 0 -3
BITMAP
210c00
19fe06
0d8dff
0d8c98
018c98
018c98
81fc98
618c98
318c98
358c98
058c9a
05ffff
0d8c30
09803c
199078
198858
318c58
f1b6d8
71e698
37819a
33011a
32021b
38041f
18180e
ENDCHAR
STARTCHAR ch-275
ENCODING 275
SWIDTH 1000 0
DWIDTH 24 0
BBX 24 24 0 -3
BITMAP
200380
180300
0c0306
0dffff
000000
00604c
806cec
60638c
32666c
32682c
04600c
047ffc
0c0300
088206
18ffff
18c206
30c446
f0c426
70dff6
30ce36
30c806
30c006
38c03e
18c00c
ENDCHAR
STARTCHAR ch-276
ENCODING 276
SWIDTH 1000 0
DWIDTH 24 0
BBX 24 24 0 -3
BITMAP
100380
0c4300
064306
067fff
00c006
018004
818018
607ffc
320300
320300
047ffc
04630c
0c630c
08630c
187ffc
18630c
30630c
f0630c
707ffc
301040
301c30
30381c
38600e
198006
ENDCHAR
STARTCHAR ch-277
ENCODING 277
SWIDTH 1000 0
DWIDTH 24 0
BBX 24 24 0 -3
BITMAP
200660
180440
0c0446
0dffff
000440
004444
807ffe
604444
324444
327ffc
044444
044444
0c7ffc
080000
182018
183ffc
303018
f03018
703ff8
303018
303018
303018
383ff8
183018
ENDCHAR
STARTCHAR ch-288
ENCODING 288
SWIDTH 1000 0
DWIDTH 24 0
BBX 24 24 0 -3
BITMAP
200e70
180c60
0c0c66
0dffff
000c60
000c60
807ffc
60600c
32600c
327ffc
04600c
04600c
0c600c
087ffc
180300
180300
300306
f1ffff
700680
300c40
300c70
30183f
38301e
19c006
ENDCHAR
STARTCHAR ch-290
ENCODING 290
SWIDTH 1000 0
DWIDTH 24 0
BBX 24 24 0 -3
BITMAP
201c70
181860
0c1866
0dffff
001860
001860
804018
607ffc
326318
326318
046318
047ff8
0c6318
080300
18fffc
180300
300300
f3ffff
700680
300c40
300c70
30183f
38601e
1b8006
ENDCHAR
STARTCHAR ch-291
ENCODING 291
SWIDTH 1000 0
DWIDTH 24 0
BBX 24 24 0 -3
BITMAP
2000e0
1900cc
0c9ffe
0cc0c0
00c0c0
00cffc
8008c4
4008c4
6408c4
640ffc
04c8c4
0fe8c4
08c8c4
08cffc
18c0c0
18c0c6
30ffff
f0c0c0
70c0c0
30c0c0
30e000
33dfff
3987fe
190000
ENDCHAR
STARTCHAR ch-299
ENCODING 299
SWIDTH 1000 0
DWIDTH 24 0
BBX 24 24 0 -3
BITMAP
201030
181ff8
0c1830
0c1830
001ff0
001830
801830
601ff0
320000
32fffe
04c446
04c446
0cfffe
080000
180030
187ff8
301030
f00860
7006c0
300380
3006e0
300c7f
38301e
19c006
ENDCHAR
STARTCHAR ch-300
ENCODING 300
SWIDTH 1000 0
DWIDTH 24 0
BBX 24 24 0 -3
BITMAP
200380
180304
0cfffe
0c0300
000308
007ffc
800300
600302
31ffff
300000
047ff8
046018
0c6018
087ff8
186018
186018
307ff8
f06018
706018
307ff8
301800
303c78
38e01e
1b0006
ENDCHAR
STARTCHAR ch-305
ENCODING 305
SWIDTH 1000 0
DWIDTH 24 0
BBX 24 24 0 -3
BITMAP
207080
1860e0
0c60c0
0c66c0
03ffc6
0060ff
806086
63fd84
326568
326660
0a6460
0a6460
0bfc60
186060
106070
10f8d0
30ecd0
f1ecd0
716c98
326198
34610c
30630f
38620e
186406
ENDCHAR
STARTCHAR ch-306
ENCODING 306
SWIDTH 1000 0
DWIDTH 24 0
BBX 24 24 0 -3
BITMAP
20310c
13f9fe
183180
183180
003188
0231fc
83f180
433180
630188
6301fc
0b0180
0b3180
0bf186
1b3fff
103190
103192
303193
f03196
703198
303188
30718c
306fef
3be706
18c406
ENDCHAR
STARTCHAR ch-312
ENCODING 312
SWIDTH 1000 0
DWIDTH 24 0
BBX 24 24 0 -3
BITMAP
407006
30609f
1866f8
1fffc0
1860c0
0264c0
83fec0
6264c6
3264ff
3264cc
03fccc
0a64cc
0a64cc
0a64cc
1bfccc
1264cc
3060cc
f066cc
77ff8c
30618c
30610c
30620c
38640c
18600c
ENDCHAR
STARTCHAR ch-318
ENCODING 318
SWIDTH 1000 0
DWIDTH 24 0
BBX 24 24 0 -3
BITMAP
102020
0c1838
060c30
060c44
00fffe
000300
800308
607ffc
320300
320302
05ffff
040800
0c0700
080308
18ff8e
18031c
3003a0
f1fb40
701b60
303338
30231f
30430e
398f06
180600
ENDCHAR
STARTCHAR ch-319
ENCODING 319
SWIDTH 1000 0
DWIDTH 24 0
BBX 24 24 0 -3
BITMAP
01c100
39818c
3183fe
318e18
31b930
3f84e0
318380
019e38
018030
7fffff
198430
118630
318630
2180f0
419c60
80180c
019c3e
7fdae0
039900
0718c0
0c1878
30181f
c0f806
003000
ENDCHAR
STARTCHAR ch-321
ENCODING 321
SWIDTH 1000 0
DWIDTH 24 0
BBX 24 24 0 -3
BITMAP
380006
30cfff
33e060
3e0040
300486
3047ff
306606
3fe606
1fc606
0007fe
000606
070606
062606
f637fe
376606
378606
368606
26c606
2667fe
667200
462398
860706
1e0c07
0c3003
ENDCHAR
STARTCHAR ch-325
ENCODING 325
SWIDTH 1000 0
DWIDTH 24 0
BBX 24 24 0 -3
BITMAP
102000
0c3800
063018
063ffc
006600
004600
808c06
63ffff
301880
3210e0
0230cc
047ffe
046180
0ce188
097ffc
1a6180
306180
f06188
707ffc
306180
306180
306186
387fff
186000
ENDCHAR
STARTCHAR ch-340
ENCODING 340
SWIDTH 1000 0
DWIDTH 24 0
BBX 24 24 0 -3
BITMAP
203800
183006
0dfeff
0c3066
003066
01fe66
803046
4030c6
643c86
65f11e
04c00c
048880
080ce0
0848c0
183190
181a0c
33fff6
f1ff06
710300
304320
307318
30630c
38c306
1b0306
ENDCHAR
STARTCHAR ch-344
ENCODING 344
SWIDTH 1000 0
DWIDTH 24 0
BBX 24 24 0 -3
BITMAP
100030
0c03f8
067f00
060310
004318
003330
801346
63ffff
300f40
301b20
041b30
04331c
0c630f
08c306
1b0000
187ff8
306318
f06318
707ff8
306318
306318
306318
387ff8
186018
ENDCHAR
STARTCHAR ch-347
ENCODING 347
SWIDTH 1000 0
DWIDTH 24 0
BBX 24 24 0 -3
BITMAP
203030
182020
0c2424
0ffffe
012120
012120
812122
63ffff
305060
305252
04d4d3
04989f
09910e
0b0000
187ff8
186018
306018
f06018
707ff8
306018
306018
306018
387ff8
186018
ENDCHAR
STARTCHAR ch-348
ENCODING 348
SWIDTH 1000 0
DWIDTH 24 0
BBX 24 24 0 -3
BITMAP
203030
182020
0c2424
0dfefe
002020
002020
802222
63ffff
305050
3448c8
04cc8c
048d07
090202
0a4018
187ffc
106018
306018
f06018
707ff8
306018
306018
306018
387ff8
186018
ENDCHAR
STARTCHAR ch-351
ENCODING 351
SWIDTH 1000 0
DWIDTH 24 0
BBX 24 24 0 -3
BITMAP
100600
0c4f0c
06707e
06600c
00600c
007c7c
80600c
60600c
32600c
327ffc
04680c
040e00
0c1c00
083006
187fff
18c006
330046
f05236
704996
30cc86
318c0c
31800c
38007c
180018
ENDCHAR
STARTCHAR ch-356
ENCODING 356
SWIDTH 1000 0
DWIDTH 24 0
BBX 24 24 0 -3
BITMAP
210c86
19feff
0d8cc6
0d8cc6
01fcfe
018cc6
818cc6
618cc6
31fcfe
358006
058006
059fe6
098306
098306
198306
199fe6
318306
f18306
718306
319fe6
318006
318006
39803e
19800c
ENDCHAR
STARTCHAR ch-358
ENCODING 358
SWIDTH 1000 0
DWIDTH 24 0
BBX 24 24 0 -3
BITMAP
200700
180600
0c060c
0dfffe
000c80
010884
809846
60d068
323030
323ffc
04703f
04b036
0d3ff0
083030
183030
183ff0
300300
f04300
707320
306318
30c30c
30830e
391f06
180600
ENDCHAR
STARTCHAR ch-365
ENCODING 365
SWIDTH 1000 0
DWIDTH 24 0
BBX 24 24 0 -3
BITMAP
200006
19ffff
0c0440
0c0440
00fffe
00c446
80c446
60c446
32fffe
320000
040000
043ff8
0c3018
083018
183ff8
183018
303018
f03ff8
700300
300306
31ffff
300300
380300
180300
ENDCHAR
STARTCHAR ch-366
ENCODING 366
SWIDTH 1000 0
DWIDTH 24 0
BBX 24 24 0 -3
BITMAP
203846
18307f
0c3266
0fff66
0c3066
003066
813666
61ff7e
318666
318666
05fe66
058666
098666
09867e
19fe66
103066
303066
f03266
73ff46
303046
3030c6
303086
38309e
18310c
ENDCHAR
STARTCHAR ch-367
ENCODING 367
SWIDTH 1000 0
DWIDTH 24 0
BBX 24 24 0 -3
BITMAP
100030
0c3ff8
060030
060030
003ff0
000030
800030
603ff0
320000
32008c
04fefe
04308c
0c308c
083e8c
19f0fc
18c030
300036
f1ffff
702030
301030
301830
301830
3801f0
180060
ENDCHAR
STARTCHAR ch-368
ENCODING 368
SWIDTH 1000 0
DWIDTH 24 0
BBX 24 24 0 -3
BITMAP
200380
184318
0c7ffc
0c6318
006318
007ff8
800300
600306
33ffff
300000
047ff8
046018
0c6018
087ff8
186018
186018
307ff8
f06018
706018
307ff8
301800
303c78
38701e
198006
ENDCHAR
STARTCHAR ch-372
ENCODING 372
SWIDTH 1000 0
DWIDTH 24 0
BBX 24 24 0 -3
BITMAP
2021c0
183988
0d318e
0ca18c
00eff8
004198
80c190
6141a6
325fff
3060c0
046180
04e300
08e60c
097bfe
19630c
12630c
34630c
f063fc
70630c
30630c
30630c
30630c
3be3fc
18c30c
ENDCHAR
STARTCHAR ch-376
ENCODING 376
SWIDTH 1000 0
DWIDTH 24 0
BBX 24 24 0 -3
BITMAP
203838
183030
0c3232
0dffff
003030
007878
807678
60b2b4
313137
343032
040000
042018
083ffc
083018
183018
103ff8
303018
f03018
703ff8
303018
302018
306018
3840f8
188030
ENDCHAR
STARTCHAR ch-378
ENCODING 378
SWIDTH 1000 0
DWIDTH 24 0
BBX 24 24 0 -3
BITMAP
20800c
18fffe
0cc00c
0cc00c
00fffc
00c00c
80c000
40cff8
64c020
64c0c0
04dffe
0cc0c0
08c0c0
08c3c0
18c180
19be7e
318204
f18408
710f10
337cff
322c18
340c18
383c78
181830
ENDCHAR
STARTCHAR ch-380
ENCODING 380
SWIDTH 1000 0
DWIDTH 24 0
BBX 24 24 0 -3
BITMAP
100380
0c0300
060318
067ffc
001040
000c60
800440
60008c
32fffe
320000
043ff8
043118
0c3118
083ff8
183118
183118
303ff8
f00100
700108
307ffc
300100
300102
39ffff
180000
ENDCHAR
STARTCHAR ch-384
ENCODING 384
SWIDTH 1000 0
DWIDTH 24 0
BBX 24 24 0 -3
BITMAP
200606
19ffff
0c2626
0c2626
00a6a6
006666
806666
405656
64c6c6
649e9e
050d0c
0c0000
083838
083030
193132
193f3f
313130
f13130
713130
313130
313d30
33f136
39c7ff
190000
ENDCHAR
STARTCHAR ch-385
ENCODING 385
SWIDTH 1000 0
DWIDTH 24 0
BBX 24 24 0 -3
BITMAP
100380
0c0300
063b00
063330
0033f8
003300
803300
40330c
65fffe
640000
040000
0c3838
083030
083032
193d3f
193130
313130
f13130
713130
313130
313d30
33f136
39c7ff
190000
ENDCHAR
STARTCHAR ch-386
ENCODING 386
SWIDTH 1000 0
DWIDTH 24 0
BBX 24 24 0 -3
BITMAP
203040
193270
0d3260
0d3240
0132c0
013286
81feff
600108
30020e
30008c
05fe8c
04308c
083088
083058
183058
11fe50
303070
f03020
703070
303658
33f8dc
31c18f
39030e
180c06
ENDCHAR
STARTCHAR ch-388
ENCODING 388
SWIDTH 1000 0
DWIDTH 24 0
BBX 24 24 0 -3
BITMAP
100308
0cff1c
0606b0
068642
004c47
006c2c
807830
601018
322fdc
32400f
048006
052030
0c3ff8
083030
183030
183030
303ff0
f04040
703070
301860
301840
300086
39ffff
180000
ENDCHAR
STARTCHAR ch-390
ENCODING 390
SWIDTH 1000 0
DWIDTH 24 0
BBX 24 24 0 -3
BITMAP
100380
0c0308
067ffc
060300
000304
00fffe
800000
601818
321010
32fefe
041010
041010
0c1c12
09f1ff
18c000
180000
30fffe
f018c0
7018c0
3018c2
3030c2
3030c3
3860ff
19807e
ENDCHAR
STARTCHAR ch-398
ENCODING 398
SWIDTH 1000 0
DWIDTH 24 0
BBX 24 24 0 -3
BITMAP
201c08
18180e
0c190c
0dff98
001818
001830
83ffe4
600047
300006
30ff0c
04c30c
04c318
0cc310
08ff24
180207
190386
308706
f0c40c
70c80c
300798
33fc10
31e020
390040
180080
ENDCHAR
STARTCHAR ch-401
ENCODING 401
SWIDTH 1000 0
DWIDTH 24 0
BBX 24 24 0 -3
BITMAP
200006
18ffff
0c0240
0c0240
004246
007e7f
806246
606246
326246
326246
047e7e
046246
0c0240
080240
187ffe
186186
306186
f06186
707ffe
306186
306186
306186
387ffe
186006
ENDCHAR
STARTCHAR ch-407
ENCODING 407
SWIDTH 1000 0
DWIDTH 24 0
BBX 24 24 0 -3
BITMAP
210c86
19feff
0d8cc6
0d8cc6
01fcfe
018cc6
818cc6
618cc6
31fcfe
358006
058006
059066
099ff6
099866
199866
199fe6
319866
f19866
719fe6
319866
318006
318006
39803e
19800c
ENDCHAR
STARTCHAR ch-417
ENCODING 417
SWIDTH 1000 0
DWIDTH 24 0
BBX 24 24 0 -3
BITMAP
101060
0c1ff0
061860
061860
001860
001fe0
800000
600000
32fcfc
328c8c
048c8c
048c8c
0cfcfc
080300
180306
1bffff
300f40
f01b20
701b30
303318
30631f
30c30e
3b0306
180300
ENDCHAR
STARTCHAR ch-419
ENCODING 419
SWIDTH 1000 0
DWIDTH 24 0
BBX 24 24 0 -3
BITMAP
207060
106060
186460
1bfe50
0060d0
0060c8
81f88c
410986
610907
610a02
09f9fc
090860
090860
190860
11f866
1063ff
306060
f06460
73fe60
306060
306060
306060
386060
186060
ENDCHAR
STARTCHAR ch-420
ENCODING 420
SWIDTH 1000 0
DWIDTH 24 0
BBX 24 24 0 -3
BITMAP
108006
0cffff
06c446
06c446
00c446
00fffe
800300
600308
327ffc
320300
040302
05ffff
0c1020
080820
180842
19ffff
300300
f00300
700304
30fffe
300300
300300
380300
180300
ENDCHAR
STARTCHAR ch-426
ENCODING 426
SWIDTH 1000 0
DWIDTH 24 0
BBX 24 24 0 -3
BITMAP
200018
18fffc
0c0600
0d0606
01ffff
030606
830604
40e670
600600
640600
05e678
0c0d00
0818c0
083078
186f9f
198006
360000
f0fffc
70060c
30060c
30060c
30067c
380618
180600
ENDCHAR
STARTCHAR ch-433
ENCODING 433
SWIDTH 1000 0
DWIDTH 24 0
BBX 24 24 0 -3
BITMAP
21064c
11ff7e
19864c
19864c
01864c
01864c
81fe4c
4500cf
652487
652500
092400
09ff06
0924ff
192446
112446
332444
32ff2c
e20028
664838
646410
646638
68c66c
7180cf
320306
ENDCHAR
STARTCHAR ch-435
ENCODING 435
SWIDTH 1000 0
DWIDTH 24 0
BBX 24 24 0 -3
BITMAP
100200
0c0380
060300
06440c
007ffe
00600c
80692c
60652c
32654c
326fec
04630c
04638c
0c656c
08692c
18610c
18600c
30630c
f1ffff
700680
300c40
300c70
30183f
38301e
19c006
ENDCHAR
STARTCHAR ch-441
ENCODING 441
SWIDTH 1000 0
DWIDTH 24 0
BBX 24 24 0 -3
BITMAP
102000
0c3060
063ff0
0660c0
004086
00ffff
81cc60
62cc60
30d87e
30d03e
04e000
04cff8
0cc000
08fffe
18c000
18cff8
30c000
f0cff8
708000
319ffc
31180c
32180c
381ffc
18180c
ENDCHAR
STARTCHAR ch-448
ENCODING 448
SWIDTH 1000 0
DWIDTH 24 0
BBX 24 24 0 -3
BITMAP
204080
1870e0
0c60c0
0dfcc0
018cc0
018cc6
81fcff
618c8c
318d8c
35fd4c
04024c
04304c
083058
0bff58
186058
106030
307c30
f04c20
70cc70
308c50
3198d8
31188f
3a790e
183606
ENDCHAR
STARTCHAR ch-449
ENCODING 449
SWIDTH 1000 0
DWIDTH 24 0
BBX 24 24 0 -3
BITMAP
21000c
19fffe
0d888c
0d888c
01888c
01fffc
802000
603800
303006
347fff
044406
048406
097fc6
0a4446
184446
184446
307fc6
f00406
700506
300486
30ffce
3078cc
38403c
180018
ENDCHAR
STARTCHAR ch-450
ENCODING 450
SWIDTH 1000 0
DWIDTH 24 0
BBX 24 24 0 -3
BITMAP
200380
180300
0d0306
0dffff
019020
018c30
818440
61fffe
318440
318440
01bffc
098444
098444
09ffff
198444
198444
31bffc
f18c40
711c60
331450
32345c
34644f
398446
180440
ENDCHAR
STARTCHAR ch-451
ENCODING 451
SWIDTH 1000 0
DWIDTH 24 0
BBX 24 24 0 -3
BITMAP
200660
180440
0c7ffc
0c4444
004444
007ffc
804444
604444
327ffc
320000
04ffff
04c000
0ccff8
08c000
18c006
18ffff
30cc40
f0cc44
70cc26
308c28
318c10
317f98
3a3c0f
182006
ENDCHAR
STARTCHAR ch-454
ENCODING 454
SWIDTH 1000 0
DWIDTH 24 0
BBX 24 24 0 -3
BITMAP
1001c0
0c0180
063ffc
060180
000990
000810
80ffff
600810
320810
320000
043ffc
04300c
0c300c
083ffc
18300c
18300c
303ffc
f0300c
70300c
303ffc
300c00
301e3c
38380f
18c003
ENDCHAR
STARTCHAR ch-468
ENCODING 468
SWIDTH 1000 0
DWIDTH 24 0
BBX 24 24 0 -3
BITMAP
200000
180006
0fffff
0c2300
007310
00630c
80c306
61ffff
328307
308304
04ab54
049324
0c9324
08ab54
188304
188304
30ab54
f09324
709324
30ab54
308304
308304
38833c
188318
ENDCHAR
STARTCHAR ch-469
ENCODING 469
SWIDTH 1000 0
DWIDTH 24 0
BBX 24 24 0 -3
BITMAP
10400c
0c7ffe
06600c
06600c
007ffc
00600c
80600c
607ffc
321020
321830
0450a0
0464c8
0c2e5c
080810
181020
182444
31fffe
f0e262
700000
304488
304444
308c66
398c63
198c63
ENDCHAR
STARTCHAR ch-472
ENCODING 472
SWIDTH 1000 0
DWIDTH 24 0
BBX 24 24 0 -3
BITMAP
2001c0
184180
0c4186
0c7fff
00c004
00c100
800c8c
602ca6
326c36
3267f0
040000
040000
0c7ffc
084444
184444
187ffc
300000
f00006
71ffff
300180
300180
300180
380f80
180300
ENDCHAR
STARTCHAR ch-475
ENCODING 475
SWIDTH 1000 0
DWIDTH 24 0
BBX 24 24 0 -3
BITMAP
100e70
0c0c66
06ffff
060c60
000c60
008006
80ffff
618006
318004
343ff0
040000
040006
09ffff
080708
180e0c
183318
31c5a0
f009c0
7033a0
31c5b0
30099c
30318f
39c786
180300
ENDCHAR
STARTCHAR ch-479
ENCODING 479
SWIDTH 1000 0
DWIDTH 24 0
BBX 24 24 0 -3
BITMAP
200380
180300
0c0306
0dffff
000880
0004cc
81f6b8
605328
305328
30d32c
049334
04b367
0d0302
086018
186018
187ff8
306018
f06018
707ff8
306018
30c018
30c018
398018
1a0018
ENDCHAR
STARTCHAR ch-480
ENCODING 480
SWIDTH 1000 0
DWIDTH 24 0
BBX 24 24 0 -3
BITMAP
100380
0c0306
06ffff
060000
001ff0
001830
801830
601ff0
308006
34ffff
058006
058004
083ff0
080308
18060c
181918
30e3a0
f00cc0
7031e0
30c2d8
300ccf
3030c6
39c7c0
180180
ENDCHAR
STARTCHAR ch-481
ENCODING 481
SWIDTH 1000 0
DWIDTH 24 0
BBX 24 24 0 -3
BITMAP
20000c
18fffe
0c0300
0c8306
00ffff
018306
818304
447b78
640300
647b78
080300
080006
09ffff
180600
188406
18ffff
30c446
f0c446
70c446
30c446
30c446
30c446
38c45e
18c00c
ENDCHAR
STARTCHAR ch-484
ENCODING 484
SWIDTH 1000 0
DWIDTH 24 0
BBX 24 24 0 -3
BITMAP
200300
180200
0dfffc
0c0200
000200
00fff8
800002
61ffff
320002
327ff4
040200
040200
0cfff8
080000
1bffff
180018
300018
f1fbff
719818
319998
319898
31f818
380078
180030
ENDCHAR
STARTCHAR ch-491
ENCODING 491
SWIDTH 1000 0
DWIDTH 24 0
BBX 24 24 0 -3
BITMAP
208640
18ff70
0c9060
0c9066
00fc7f
0084c0
808480
60fd00
32900c
3290fe
049000
04ff00
0c8000
080000
184018
187ffc
306498
f06498
706498
306498
306498
306498
3bffff
180000
ENDCHAR
STARTCHAR ch-492
ENCODING 492
SWIDTH 1000 0
DWIDTH 24 0
BBX 24 24 0 -3
BITMAP
100700
0c0618
0607fc
068600
008606
00ffff
818006
619fe4
300000
302030
04731c
04c78c
0c0ee0
083878
18e01f
1b7ffe
306018
f07ff8
706018
307ff8
306018
306018
387ff8
186018
ENDCHAR
STARTCHAR ch-494
ENCODING 494
SWIDTH 1000 0
DWIDTH 24 0
BBX 24 24 0 -3
BITMAP
204120
186924
0c6526
0c6524
006528
00c120
80dffe
40c410
65c318
65c120
06dffe
0cc0c0
08c0c0
08cffc
18c0c0
18c0c0
30ffff
f0c1a0
70c1a0
30c130
30c318
30c21f
38c40e
18d806
ENDCHAR
STARTCHAR ch-495
ENCODING 495
SWIDTH 1000 0
DWIDTH 24 0
BBX 24 24 0 -3
BITMAP
200c06
19feff
0c0c06
0c0c06
01fcfe
000c06
800c06
41fcfe
640c06
642100
0439c0
08318c
087ffe
086100
18e100
197ffc
326100
f06100
707ffc
306100
306100
306106
387fff
186000
ENDCHAR
STARTCHAR ch-497
ENCODING 497
SWIDTH 1000 0
DWIDTH 24 0
BBX 24 24 0 -3
BITMAP
200380
188306
0cffff
0d8006
01bfe4
000200
802298
6073cc
32c70c
321c00
04fff8
043018
0c3018
083ff8
183018
183018
303ff8
f03018
703018
303ff8
300800
301c70
38301c
18c00c
ENDCHAR
STARTCHAR ch-499
ENCODING 499
SWIDTH 1000 0
DWIDTH 24 0
BBX 24 24 0 -3
BITMAP
201830
189120
0c9124
0cfffe
009120
011220
801022
63ffff
305060
305252
04d4d3
04989f
09910e
0b0000
187ff8
186018
306018
f06018
707ff8
306018
306018
306018
387ff8
186018
ENDCHAR
STARTCHAR ch-502
ENCODING 502
SWIDTH 1000 0
DWIDTH 24 0
BBX 24 24 0 -3
BITMAP
421886
33fcff
1b0886
1b0886
03f8fe
030886
830886
43f8fe
630006
6b0186
0b07c6
0b3e06
0b0666
1b7ff6
1b0606
130606
333fe6
f33066
733066
333fe6
333066
330006
3b003e
1b000c
ENDCHAR
STARTCHAR ch-506
ENCODING 506
SWIDTH 1000 0
DWIDTH 24 0
BBX 24 24 0 -3
BITMAP
2131d8
19f988
0d1180
0d108e
0110f0
0117c0
81f04c
611038
311062
31119a
05160f
05f033
0d1190
09118e
1911f0
191784
311086
f1f0cc
700058
313022
319872
3118da
3a030f
180c03
ENDCHAR
STARTCHAR ch-510
ENCODING 510
SWIDTH 1000 0
DWIDTH 24 0
BBX 24 24 0 -3
BITMAP
100000
0c0006
06ffff
060000
000000
00400c
807ffe
60600c
32600c
32600c
04600c
047ffc
0c600c
086000
186000
186000
306000
f0e000
70c000
30c000
308000
318000
390000
1a0000
ENDCHAR
ENDFONT
